# xmcd
#
# Track frame offsets:
#	150
#	23347
#	45965
#	63107
#	84032
#	103822
#	125760
#	140005
#	157892
#	175460
#	193055
#
# Disc length: 2797 seconds
#
# Revision: 1
# Processed by: cddbd v1.5.2PL0 Copyright (c) Steve Scherf et al.
# Submitted via: EZCDAudioConverter 3.1.5.1
#
DISCID=850aeb0b
DTITLE=Άλκηστις Πρωτοψάλτη - Ανθρώπων έργα
DYEAR=1993
DGENRE=
TTITLE0=Δερβίσης
TTITLE1=Ανθρώπων έργα
TTITLE2=Τα λαϊκά
TTITLE3=Κάστρο
TTITLE4=Υπερωκεάνιο
TTITLE5=Γάτος
TTITLE6=Τα 2 παλτά
TTITLE7=Η δουλειά
TTITLE8=Το σίδερο
TTITLE9=Βράχος
TTITLE10=Αράχνη
EXTD=
EXTT0=
EXTT1=
EXTT2=
EXTT3=
EXTT4=
EXTT5=
EXTT6=
EXTT7=
EXTT8=
EXTT9=
EXTT10=
PLAYORDER=
